<svg xmlns="http://www.w3.org/2000/svg" viewBox="0 0 256 256" role="img" aria-labelledby="title">
  <title id="title">AusStats.jl favicon</title>
  <defs><clipPath id="australia"><path d="M 20.5 161.3 L 30.7 120.3 L 69.1 97.3 L 110.1 64.0 L 148.5 61.4 L 184.3 84.5 L 227.8 99.8 L 245.8 140.8 L 212.5 186.9 L 169.0 199.7 L 133.1 163.8 L 97.3 166.4 L 56.3 184.3 Z"/></clipPath></defs>
  <rect width="256" height="256" fill="transparent"/>
  <g clip-path="url(#australia)">
    <circle cx="111.1" cy="110.1" r="7.7" fill="#249b22" opacity="0.85"/>
    <circle cx="177.1" cy="117.4" r="9.9" fill="#249b22" opacity="0.90"/>
    <circle cx="117.9" cy="156.4" r="10.3" fill="#249b22" opacity="0.86"/>
    <circle cx="209.2" cy="140.4" r="10.5" fill="#9651bd" opacity="0.91"/>
    <circle cx="88.8" cy="140.4" r="7.2" fill="#e53b2c" opacity="0.89"/>
    <circle cx="147.9" cy="150.5" r="10.2" fill="#249b22" opacity="0.86"/>
    <circle cx="137.5" cy="129.4" r="7.1" fill="#249b22" opacity="0.98"/>
    <circle cx="75.2" cy="173.8" r="7.5" fill="#e53b2c" opacity="0.85"/>
    <circle cx="40.2" cy="128.6" r="6.1" fill="#e53b2c" opacity="0.95"/>
    <circle cx="222.6" cy="114.2" r="8.0" fill="#249b22" opacity="0.86"/>
    <circle cx="165.1" cy="118.0" r="8.1" fill="#249b22" opacity="0.89"/>
    <circle cx="183.3" cy="164.4" r="7.8" fill="#249b22" opacity="0.96"/>
    <circle cx="29.7" cy="159.1" r="8.7" fill="#e53b2c" opacity="0.96"/>
    <circle cx="178.6" cy="190.6" r="8.9" fill="#249b22" opacity="0.96"/>
    <circle cx="121.5" cy="112.9" r="9.4" fill="#249b22" opacity="0.98"/>
    <circle cx="120.3" cy="151.6" r="8.9" fill="#249b22" opacity="0.97"/>
    <circle cx="90.1" cy="134.6" r="7.8" fill="#e53b2c" opacity="0.90"/>
    <circle cx="95.2" cy="115.5" r="6.8" fill="#249b22" opacity="0.90"/>
    <circle cx="208.6" cy="186.0" r="10.2" fill="#9651bd" opacity="0.90"/>
    <circle cx="222.8" cy="105.6" r="8.7" fill="#249b22" opacity="0.96"/>
    <circle cx="167.1" cy="183.5" r="8.2" fill="#9651bd" opacity="0.84"/>
    <circle cx="43.5" cy="117.7" r="9.2" fill="#e53b2c" opacity="0.91"/>
    <circle cx="176.1" cy="190.6" r="7.9" fill="#9651bd" opacity="0.92"/>
    <circle cx="217.2" cy="152.9" r="9.4" fill="#9651bd" opacity="0.85"/>
    <circle cx="212.8" cy="127.3" r="7.4" fill="#9651bd" opacity="0.94"/>
    <circle cx="155.3" cy="127.6" r="8.8" fill="#249b22" opacity="0.89"/>
    <circle cx="153.6" cy="174.9" r="10.1" fill="#249b22" opacity="0.93"/>
    <circle cx="199.3" cy="172.1" r="6.4" fill="#9651bd" opacity="0.91"/>
    <circle cx="172.8" cy="120.0" r="10.3" fill="#249b22" opacity="0.92"/>
    <circle cx="125.9" cy="110.8" r="7.0" fill="#249b22" opacity="0.91"/>
    <circle cx="67.1" cy="152.2" r="8.4" fill="#e53b2c" opacity="0.97"/>
    <circle cx="217.2" cy="138.9" r="10.3" fill="#9651bd" opacity="0.94"/>
    <circle cx="51.4" cy="170.7" r="9.1" fill="#e53b2c" opacity="0.92"/>
    <circle cx="184.0" cy="107.3" r="9.4" fill="#249b22" opacity="0.98"/>
    <circle cx="198.7" cy="98.5" r="6.0" fill="#9651bd" opacity="0.95"/>
    <circle cx="168.9" cy="156.7" r="6.9" fill="#9651bd" opacity="0.88"/>
    <circle cx="228.1" cy="158.0" r="7.8" fill="#9651bd" opacity="0.84"/>
    <circle cx="192.8" cy="154.8" r="7.0" fill="#9651bd" opacity="0.91"/>
    <circle cx="185.3" cy="185.1" r="8.6" fill="#249b22" opacity="0.87"/>
    <circle cx="189.2" cy="155.1" r="9.3" fill="#9651bd" opacity="0.90"/>
    <circle cx="207.4" cy="131.9" r="8.5" fill="#9651bd" opacity="0.94"/>
    <circle cx="26.0" cy="149.1" r="7.9" fill="#e53b2c" opacity="0.95"/>
    <circle cx="214.4" cy="114.4" r="8.6" fill="#9651bd" opacity="0.88"/>
    <circle cx="136.3" cy="105.1" r="7.9" fill="#249b22" opacity="0.96"/>
    <circle cx="228.0" cy="132.7" r="8.1" fill="#9651bd" opacity="0.96"/>
    <circle cx="127.6" cy="114.3" r="8.9" fill="#249b22" opacity="0.95"/>
    <circle cx="133.3" cy="137.4" r="7.8" fill="#249b22" opacity="0.95"/>
    <circle cx="162.2" cy="115.1" r="6.6" fill="#9651bd" opacity="0.93"/>
    <circle cx="149.0" cy="111.1" r="7.4" fill="#249b22" opacity="0.91"/>
    <circle cx="192.9" cy="126.3" r="9.4" fill="#9651bd" opacity="0.95"/>
    <circle cx="178.9" cy="108.6" r="7.1" fill="#249b22" opacity="0.93"/>
    <circle cx="225.1" cy="130.7" r="8.4" fill="#9651bd" opacity="0.95"/>
    <circle cx="147.6" cy="164.5" r="7.7" fill="#249b22" opacity="0.88"/>
    <circle cx="134.5" cy="111.1" r="8.2" fill="#249b22" opacity="0.88"/>
    <circle cx="162.3" cy="75.0" r="6.1" fill="#249b22" opacity="0.97"/>
    <circle cx="192.2" cy="114.9" r="5.9" fill="#9651bd" opacity="0.93"/>
    <circle cx="200.9" cy="163.2" r="10.2" fill="#249b22" opacity="0.87"/>
    <circle cx="83.1" cy="152.4" r="10.5" fill="#e53b2c" opacity="0.98"/>
    <circle cx="176.4" cy="184.3" r="6.3" fill="#9651bd" opacity="0.85"/>
    <circle cx="201.2" cy="95.5" r="5.9" fill="#9651bd" opacity="0.94"/>
    <circle cx="197.7" cy="122.7" r="9.4" fill="#9651bd" opacity="0.95"/>
    <circle cx="49.1" cy="142.2" r="8.5" fill="#e53b2c" opacity="0.93"/>
    <circle cx="95.9" cy="123.7" r="8.4" fill="#249b22" opacity="0.89"/>
    <circle cx="196.3" cy="172.6" r="7.0" fill="#249b22" opacity="0.93"/>
    <circle cx="197.6" cy="163.5" r="10.1" fill="#9651bd" opacity="0.93"/>
    <circle cx="81.0" cy="123.0" r="10.1" fill="#e53b2c" opacity="0.92"/>
    <circle cx="123.3" cy="79.4" r="7.8" fill="#249b22" opacity="0.85"/>
    <circle cx="60.5" cy="125.2" r="6.4" fill="#e53b2c" opacity="0.89"/>
    <circle cx="171.4" cy="125.7" r="7.7" fill="#9651bd" opacity="0.89"/>
    <circle cx="202.0" cy="173.1" r="7.7" fill="#249b22" opacity="0.96"/>
    <circle cx="193.4" cy="118.1" r="6.6" fill="#9651bd" opacity="0.90"/>
    <circle cx="218.0" cy="155.2" r="9.5" fill="#9651bd" opacity="0.98"/>
    <circle cx="147.3" cy="107.6" r="7.5" fill="#249b22" opacity="0.92"/>
    <circle cx="210.1" cy="167.0" r="6.2" fill="#9651bd" opacity="0.90"/>
    <circle cx="156.3" cy="111.9" r="10.0" fill="#249b22" opacity="0.95"/>
    <circle cx="110.0" cy="144.9" r="7.1" fill="#249b22" opacity="0.87"/>
    <circle cx="168.2" cy="102.6" r="9.3" fill="#9651bd" opacity="0.90"/>
    <circle cx="64.6" cy="177.4" r="7.4" fill="#e53b2c" opacity="0.93"/>
    <circle cx="184.6" cy="167.6" r="7.7" fill="#249b22" opacity="0.84"/>
    <circle cx="98.8" cy="151.9" r="6.7" fill="#249b22" opacity="0.93"/>
    <circle cx="173.7" cy="113.0" r="9.9" fill="#9651bd" opacity="0.89"/>
    <circle cx="186.1" cy="166.9" r="6.6" fill="#9651bd" opacity="0.90"/>
    <circle cx="46.4" cy="171.9" r="7.0" fill="#e53b2c" opacity="0.85"/>
    <circle cx="52.9" cy="179.3" r="7.7" fill="#e53b2c" opacity="0.91"/>
    <circle cx="188.7" cy="88.0" r="8.5" fill="#9651bd" opacity="0.85"/>
    <circle cx="209.1" cy="132.6" r="7.4" fill="#9651bd" opacity="0.91"/>
    <circle cx="197.7" cy="155.0" r="9.4" fill="#9651bd" opacity="0.93"/>
    <circle cx="203.1" cy="106.1" r="6.5" fill="#9651bd" opacity="0.95"/>
    <circle cx="50.1" cy="160.3" r="9.6" fill="#e53b2c" opacity="0.91"/>
    <circle cx="152.1" cy="114.8" r="6.7" fill="#249b22" opacity="0.94"/>
    <circle cx="164.0" cy="169.8" r="10.1" fill="#9651bd" opacity="0.93"/>
    <circle cx="156.7" cy="167.8" r="8.4" fill="#249b22" opacity="0.94"/>
    <circle cx="174.4" cy="138.4" r="7.8" fill="#9651bd" opacity="0.95"/>
    <circle cx="221.0" cy="155.6" r="6.7" fill="#9651bd" opacity="0.84"/>
    <circle cx="181.9" cy="191.4" r="7.4" fill="#249b22" opacity="0.94"/>
    <circle cx="190.8" cy="124.2" r="10.4" fill="#9651bd" opacity="0.85"/>
    <circle cx="154.4" cy="173.3" r="9.4" fill="#249b22" opacity="0.94"/>
    <circle cx="61.0" cy="128.8" r="8.0" fill="#e53b2c" opacity="0.84"/>
    <circle cx="180.6" cy="146.3" r="7.9" fill="#9651bd" opacity="0.88"/>
    <circle cx="169.6" cy="82.5" r="6.4" fill="#9651bd" opacity="0.98"/>
    <circle cx="178.2" cy="129.4" r="8.5" fill="#249b22" opacity="0.92"/>
    <circle cx="191.7" cy="94.8" r="6.9" fill="#9651bd" opacity="0.95"/>
    <circle cx="175.4" cy="179.4" r="7.9" fill="#9651bd" opacity="0.89"/>
    <circle cx="235.1" cy="141.1" r="7.0" fill="#9651bd" opacity="0.88"/>
    <circle cx="159.5" cy="107.6" r="7.6" fill="#249b22" opacity="0.86"/>
    <circle cx="229.4" cy="113.8" r="9.9" fill="#249b22" opacity="0.95"/>
    <circle cx="168.8" cy="92.3" r="7.4" fill="#9651bd" opacity="0.92"/>
    <circle cx="187.5" cy="180.3" r="7.3" fill="#249b22" opacity="0.92"/>
    <circle cx="178.0" cy="192.6" r="8.8" fill="#9651bd" opacity="0.88"/>
    <circle cx="147.3" cy="100.4" r="8.7" fill="#249b22" opacity="0.87"/>
    <circle cx="195.5" cy="100.6" r="10.0" fill="#9651bd" opacity="0.96"/>
    <circle cx="176.1" cy="130.2" r="6.6" fill="#9651bd" opacity="0.86"/>
    <circle cx="185.1" cy="146.4" r="6.7" fill="#9651bd" opacity="0.97"/>
    <circle cx="164.1" cy="124.7" r="9.2" fill="#9651bd" opacity="0.84"/>
    <circle cx="54.9" cy="130.0" r="6.8" fill="#e53b2c" opacity="0.96"/>
    <circle cx="228.6" cy="148.6" r="8.5" fill="#249b22" opacity="0.93"/>
    <circle cx="184.1" cy="145.8" r="7.4" fill="#249b22" opacity="0.85"/>
    <circle cx="123.7" cy="158.1" r="8.2" fill="#249b22" opacity="0.89"/>
    <circle cx="225.3" cy="126.9" r="8.8" fill="#249b22" opacity="0.84"/>
    <circle cx="234.6" cy="116.2" r="9.0" fill="#9651bd" opacity="0.97"/>
    <circle cx="141.8" cy="156.3" r="8.8" fill="#249b22" opacity="0.87"/>
    <circle cx="188.3" cy="134.6" r="8.3" fill="#249b22" opacity="0.89"/>
    <circle cx="172.0" cy="126.6" r="8.2" fill="#9651bd" opacity="0.96"/>
    <circle cx="102.3" cy="162.6" r="7.8" fill="#249b22" opacity="0.92"/>
    <circle cx="200.9" cy="105.1" r="7.3" fill="#9651bd" opacity="0.91"/>
    <circle cx="125.9" cy="161.1" r="6.7" fill="#249b22" opacity="0.94"/>
    <circle cx="212.2" cy="171.6" r="6.7" fill="#249b22" opacity="0.84"/>
    <circle cx="163.1" cy="77.7" r="7.8" fill="#9651bd" opacity="0.88"/>
    <circle cx="197.8" cy="128.6" r="6.0" fill="#9651bd" opacity="0.88"/>
    <circle cx="156.7" cy="161.6" r="7.2" fill="#249b22" opacity="0.88"/>
    <circle cx="184.5" cy="132.7" r="7.5" fill="#9651bd" opacity="0.97"/>
    <circle cx="133.6" cy="150.9" r="6.8" fill="#249b22" opacity="0.98"/>
    <circle cx="74.9" cy="115.9" r="5.8" fill="#e53b2c" opacity="0.95"/>
    <circle cx="132.4" cy="132.6" r="7.8" fill="#249b22" opacity="0.91"/>
    <circle cx="80.0" cy="162.6" r="6.5" fill="#e53b2c" opacity="0.93"/>
    <circle cx="207.8" cy="175.3" r="7.1" fill="#249b22" opacity="0.98"/>
    <circle cx="224.9" cy="152.1" r="7.2" fill="#9651bd" opacity="0.91"/>
    <circle cx="120.9" cy="161.1" r="10.1" fill="#249b22" opacity="0.89"/>
    <circle cx="174.6" cy="164.0" r="5.9" fill="#9651bd" opacity="0.93"/>
    <circle cx="150.9" cy="88.7" r="10.0" fill="#249b22" opacity="0.92"/>
    <circle cx="37.7" cy="156.8" r="5.8" fill="#e53b2c" opacity="0.86"/>
    <circle cx="219.2" cy="149.4" r="6.3" fill="#249b22" opacity="0.86"/>
    <circle cx="87.8" cy="165.9" r="9.4" fill="#e53b2c" opacity="0.91"/>
    <circle cx="125.6" cy="130.0" r="9.8" fill="#249b22" opacity="0.87"/>
    <circle cx="127.6" cy="135.3" r="6.4" fill="#249b22" opacity="0.88"/>
    <circle cx="25.6" cy="141.2" r="7.7" fill="#e53b2c" opacity="0.87"/>
    <circle cx="222.7" cy="102.4" r="9.4" fill="#9651bd" opacity="0.85"/>
    <circle cx="78.5" cy="163.3" r="7.9" fill="#e53b2c" opacity="0.92"/>
    <circle cx="122.2" cy="122.1" r="7.0" fill="#249b22" opacity="0.93"/>
    <circle cx="221.6" cy="98.1" r="8.7" fill="#9651bd" opacity="0.98"/>
    <circle cx="209.7" cy="186.0" r="8.2" fill="#9651bd" opacity="0.86"/>
    <circle cx="147.7" cy="172.9" r="6.8" fill="#249b22" opacity="0.87"/>
    <circle cx="204.3" cy="170.8" r="7.9" fill="#249b22" opacity="0.87"/>
    <circle cx="51.1" cy="172.1" r="6.6" fill="#e53b2c" opacity="0.86"/>
    <circle cx="206.2" cy="149.7" r="10.3" fill="#9651bd" opacity="0.89"/>
    <circle cx="154.8" cy="182.9" r="6.1" fill="#249b22" opacity="0.84"/>
    <circle cx="136.8" cy="141.8" r="6.0" fill="#249b22" opacity="0.94"/>
    <circle cx="60.2" cy="111.8" r="10.3" fill="#e53b2c" opacity="0.89"/>
    <circle cx="71.1" cy="173.1" r="10.2" fill="#e53b2c" opacity="0.85"/>
    <circle cx="84.0" cy="165.5" r="6.9" fill="#e53b2c" opacity="0.94"/>
    <circle cx="115.7" cy="112.1" r="5.9" fill="#249b22" opacity="0.91"/>
    <circle cx="152.9" cy="176.5" r="7.0" fill="#249b22" opacity="0.92"/>
    <circle cx="220.8" cy="168.2" r="7.5" fill="#9651bd" opacity="0.91"/>
    <circle cx="186.6" cy="138.0" r="8.4" fill="#249b22" opacity="0.86"/>
    <circle cx="150.5" cy="64.2" r="7.4" fill="#249b22" opacity="0.95"/>
    <circle cx="99.1" cy="130.5" r="7.1" fill="#249b22" opacity="0.89"/>
    <circle cx="122.0" cy="133.2" r="6.9" fill="#249b22" opacity="0.97"/>
    <circle cx="131.6" cy="109.6" r="8.8" fill="#249b22" opacity="0.89"/>
    <circle cx="164.6" cy="183.4" r="6.1" fill="#9651bd" opacity="0.90"/>
    <circle cx="190.5" cy="151.7" r="7.0" fill="#249b22" opacity="0.92"/>
    <circle cx="168.8" cy="116.5" r="9.7" fill="#9651bd" opacity="0.86"/>
    <circle cx="178.4" cy="102.6" r="9.3" fill="#249b22" opacity="0.89"/>
    <circle cx="153.8" cy="127.4" r="8.5" fill="#249b22" opacity="0.87"/>
    <circle cx="238.9" cy="143.0" r="8.6" fill="#9651bd" opacity="0.85"/>
    <circle cx="156.7" cy="145.4" r="6.2" fill="#249b22" opacity="0.88"/>
    <circle cx="45.7" cy="168.9" r="7.1" fill="#e53b2c" opacity="0.97"/>
    <circle cx="171.9" cy="183.0" r="8.8" fill="#249b22" opacity="0.97"/>
    <circle cx="89.8" cy="165.3" r="8.6" fill="#e53b2c" opacity="0.98"/>
    <circle cx="211.3" cy="155.3" r="7.2" fill="#249b22" opacity="0.91"/>
    <circle cx="31.1" cy="136.1" r="6.5" fill="#e53b2c" opacity="0.95"/>
    <circle cx="155.0" cy="162.3" r="7.4" fill="#249b22" opacity="0.94"/>
    <circle cx="140.2" cy="81.8" r="7.7" fill="#249b22" opacity="0.88"/>
    <circle cx="53.5" cy="163.9" r="9.6" fill="#e53b2c" opacity="0.89"/>
    <circle cx="89.4" cy="158.2" r="9.7" fill="#e53b2c" opacity="0.97"/>
    <circle cx="53.0" cy="134.6" r="6.2" fill="#e53b2c" opacity="0.98"/>
    <circle cx="68.3" cy="138.9" r="6.3" fill="#e53b2c" opacity="0.88"/>
    <circle cx="224.9" cy="141.3" r="9.6" fill="#9651bd" opacity="0.97"/>
    <circle cx="60.8" cy="150.1" r="6.9" fill="#e53b2c" opacity="0.93"/>
    <circle cx="68.0" cy="151.5" r="9.1" fill="#e53b2c" opacity="0.86"/>
    <circle cx="185.7" cy="179.2" r="7.0" fill="#9651bd" opacity="0.92"/>
    <circle cx="146.0" cy="120.2" r="10.4" fill="#249b22" opacity="0.88"/>
    <circle cx="30.2" cy="126.8" r="7.7" fill="#e53b2c" opacity="0.92"/>
    <circle cx="131.8" cy="126.1" r="9.4" fill="#249b22" opacity="0.84"/>
    <circle cx="107.2" cy="99.0" r="6.9" fill="#249b22" opacity="0.89"/>
    <circle cx="168.8" cy="120.9" r="6.3" fill="#9651bd" opacity="0.90"/>
    <circle cx="188.5" cy="190.7" r="9.3" fill="#9651bd" opacity="0.85"/>
    <circle cx="88.6" cy="145.0" r="10.5" fill="#e53b2c" opacity="0.87"/>
    <circle cx="108.8" cy="92.4" r="6.5" fill="#249b22" opacity="0.98"/>
    <circle cx="191.5" cy="174.6" r="5.9" fill="#9651bd" opacity="0.84"/>
    <circle cx="206.4" cy="178.2" r="6.2" fill="#9651bd" opacity="0.91"/>
    <circle cx="164.0" cy="165.6" r="10.3" fill="#249b22" opacity="0.86"/>
    <circle cx="180.7" cy="159.7" r="8.3" fill="#249b22" opacity="0.95"/>
    <circle cx="182.9" cy="191.0" r="7.1" fill="#9651bd" opacity="0.97"/>
    <circle cx="83.5" cy="163.0" r="10.2" fill="#e53b2c" opacity="0.97"/>
    <circle cx="91.1" cy="167.3" r="9.4" fill="#e53b2c" opacity="0.85"/>
    <circle cx="193.0" cy="171.6" r="8.3" fill="#9651bd" opacity="0.88"/>
    <circle cx="135.8" cy="136.7" r="7.9" fill="#249b22" opacity="0.93"/>
    <circle cx="120.5" cy="163.8" r="8.9" fill="#249b22" opacity="0.96"/>
    <circle cx="135.7" cy="146.3" r="7.8" fill="#249b22" opacity="0.94"/>
    <circle cx="226.4" cy="150.9" r="6.1" fill="#9651bd" opacity="0.88"/>
    <circle cx="124.4" cy="144.2" r="8.7" fill="#249b22" opacity="0.97"/>
    <circle cx="163.5" cy="161.4" r="6.6" fill="#249b22" opacity="0.86"/>
    <circle cx="135.3" cy="89.0" r="7.5" fill="#249b22" opacity="0.97"/>
    <circle cx="163.9" cy="125.0" r="8.0" fill="#9651bd" opacity="0.96"/>
    <circle cx="51.4" cy="175.2" r="6.8" fill="#e53b2c" opacity="0.95"/>
    <circle cx="159.4" cy="160.4" r="9.4" fill="#9651bd" opacity="0.92"/>
    <circle cx="30.9" cy="163.8" r="9.5" fill="#e53b2c" opacity="0.91"/>
    <circle cx="121.3" cy="121.2" r="6.0" fill="#249b22" opacity="0.89"/>
    <circle cx="111.8" cy="89.6" r="10.2" fill="#249b22" opacity="0.93"/>
    <circle cx="215.7" cy="154.3" r="9.1" fill="#9651bd" opacity="0.93"/>
    <circle cx="234.4" cy="129.9" r="9.0" fill="#9651bd" opacity="0.91"/>
    <circle cx="60.6" cy="124.9" r="7.4" fill="#e53b2c" opacity="0.91"/>
    <circle cx="198.8" cy="160.0" r="6.0" fill="#249b22" opacity="0.93"/>
    <circle cx="219.1" cy="108.0" r="7.1" fill="#9651bd" opacity="0.92"/>
    <circle cx="83.9" cy="128.7" r="6.9" fill="#e53b2c" opacity="0.94"/>
    <circle cx="40.4" cy="171.0" r="8.7" fill="#e53b2c" opacity="0.90"/>
    <circle cx="174.5" cy="111.9" r="8.2" fill="#9651bd" opacity="0.88"/>
    <circle cx="219.9" cy="122.8" r="6.2" fill="#9651bd" opacity="0.96"/>
    <circle cx="106.0" cy="159.8" r="7.8" fill="#249b22" opacity="0.96"/>
    <circle cx="171.5" cy="162.7" r="8.0" fill="#9651bd" opacity="0.96"/>
    <circle cx="184.4" cy="173.5" r="7.0" fill="#9651bd" opacity="0.87"/>
    <circle cx="60.9" cy="181.5" r="9.5" fill="#e53b2c" opacity="0.98"/>
    <circle cx="167.9" cy="183.9" r="5.8" fill="#249b22" opacity="0.84"/>
    <circle cx="106.2" cy="148.2" r="10.4" fill="#249b22" opacity="0.93"/>
    <circle cx="129.9" cy="115.3" r="9.4" fill="#249b22" opacity="0.93"/>
    <circle cx="242.8" cy="139.3" r="6.8" fill="#9651bd" opacity="0.89"/>
    <circle cx="238.3" cy="148.0" r="5.8" fill="#249b22" opacity="0.87"/>
    <circle cx="198.2" cy="137.3" r="7.8" fill="#9651bd" opacity="0.85"/>
    <circle cx="103.2" cy="128.8" r="9.6" fill="#249b22" opacity="0.90"/>
    <circle cx="181.7" cy="130.1" r="9.6" fill="#9651bd" opacity="0.92"/>
    <circle cx="102.5" cy="95.5" r="8.8" fill="#249b22" opacity="0.87"/>
    <circle cx="42.3" cy="140.7" r="9.4" fill="#e53b2c" opacity="0.89"/>
    <circle cx="171.8" cy="145.2" r="8.2" fill="#249b22" opacity="0.91"/>
    <circle cx="166.2" cy="86.2" r="8.5" fill="#249b22" opacity="0.95"/>
    <circle cx="213.2" cy="108.6" r="9.9" fill="#9651bd" opacity="0.93"/>
    <circle cx="121.8" cy="101.0" r="6.7" fill="#249b22" opacity="0.88"/>
    <circle cx="176.5" cy="130.4" r="8.9" fill="#9651bd" opacity="0.94"/>
    <circle cx="170.9" cy="166.3" r="9.7" fill="#9651bd" opacity="0.94"/>
    <circle cx="203.9" cy="158.2" r="8.5" fill="#9651bd" opacity="0.97"/>
    <circle cx="186.9" cy="109.6" r="10.4" fill="#9651bd" opacity="0.95"/>
    <circle cx="157.3" cy="117.7" r="9.0" fill="#249b22" opacity="0.86"/>
    <circle cx="109.4" cy="87.8" r="8.4" fill="#249b22" opacity="0.95"/>
    <circle cx="100.8" cy="126.3" r="6.8" fill="#249b22" opacity="0.85"/>
    <circle cx="180.4" cy="150.2" r="8.1" fill="#9651bd" opacity="0.89"/>
    <circle cx="186.0" cy="130.0" r="9.4" fill="#9651bd" opacity="0.92"/>
    <circle cx="175.2" cy="156.1" r="8.8" fill="#249b22" opacity="0.90"/>
    <circle cx="198.1" cy="127.6" r="10.1" fill="#249b22" opacity="0.96"/>
    <circle cx="123.8" cy="83.9" r="7.4" fill="#249b22" opacity="0.89"/>
    <circle cx="207.7" cy="112.4" r="7.6" fill="#249b22" opacity="0.91"/>
    <circle cx="162.0" cy="73.2" r="7.7" fill="#9651bd" opacity="0.87"/>
  </g>
  <circle cx="203.0" cy="220.0" r="5.5" fill="#9651bd" opacity="0.98"/>
  <circle cx="219.0" cy="218.0" r="5.2" fill="#9651bd" opacity="0.98"/>
  <circle cx="233.0" cy="215.0" r="5.8" fill="#9651bd" opacity="0.98"/>
</svg>
